<?xml version="1.0" encoding="UTF-8"?>
<svg xmlns="http://www.w3.org/2000/svg" width="289" height="80" viewBox="0 0 289 80" fill="none">
  <g clip-path="url(#clip0_254_4447)">
    <path d="M69.4883 0H84.6714C92.4118 0 97.8773 3.99499 97.8773 11.084C97.8773 15.079 95.9562 18.5299 92.7152 20.2867V20.4056C97.3999 21.7997 99.6186 26.1573 99.6186 30.5149C99.6186 39.1112 92.7769 42.9872 84.913 42.9872H69.4883V0ZM84.7332 17.561C88.0922 17.561 90.0133 15.1413 90.0133 12.053C90.0133 8.96466 88.1541 6.72632 84.6097 6.72632H77.2287V17.5667H84.7332V17.561ZM85.514 36.2723C89.4741 36.2723 91.6984 33.6714 91.6984 30.0333C91.6984 26.4634 89.4179 23.8566 85.514 23.8566H77.2287V36.2666H85.514V36.2723Z" fill="black"></path>
    <path d="M121.409 23.6181H122.729V23.193C122.729 19.1357 120.151 17.7417 116.966 17.7417C113.967 17.7417 110.905 19.011 108.445 20.711L105.625 15.203C108.147 13.1461 113.068 11.3894 117.628 11.3894C125.611 11.3894 130.352 15.8717 130.352 23.6803V42.9979H123.268V40.397C123.268 39.1277 123.448 38.1587 123.448 38.1587H123.33C121.471 41.4283 117.808 43.729 113.669 43.729C108.147 43.729 103.586 40.0966 103.586 34.464C103.586 25.1933 114.629 23.6181 121.409 23.6181ZM115.769 37.847C120.033 37.847 122.791 33.4893 122.791 29.7323V28.8824H121.471C117.628 28.8824 111.146 29.4264 111.146 33.7896C111.146 35.8467 112.708 37.847 115.769 37.847Z" fill="black"></path>
    <path d="M138.389 34.0909C140.669 36.2101 144.029 37.4795 147.09 37.4795C149.792 37.4795 151.354 36.3292 151.354 34.3912C151.354 29.5463 136.17 30.7589 136.17 20.6439C136.17 14.5919 141.451 11.3789 147.876 11.3789C151.539 11.3789 155.38 12.4103 158.201 14.8922L155.38 20.2812C153.578 18.7059 150.337 17.6179 147.641 17.6179C145 17.6179 143.377 18.6492 143.377 20.5872C143.377 25.4946 158.56 24.1005 158.56 34.2098C158.56 39.6612 154 43.7185 146.978 43.7185C142.715 43.7185 138.153 42.2679 134.974 39.1796L138.389 34.0909Z" fill="black"></path>
    <path d="M194.341 0H210.788C218.77 0 224.354 5.63266 224.354 13.9853C224.354 22.3437 218.77 28.152 210.788 28.152H202.087V42.9872H194.347V0H194.341ZM209.344 21.3746C213.844 21.3746 216.49 18.4677 216.49 13.9853C216.49 9.56533 213.849 6.72066 209.468 6.72066H202.087V21.3746H209.344Z" fill="black"></path>
    <path d="M244.913 23.6181H246.232V23.193C246.232 19.1357 243.655 17.7417 240.469 17.7417C237.47 17.7417 234.409 19.011 231.948 20.711L229.129 15.203C231.651 13.1461 236.571 11.3894 241.132 11.3894C249.114 11.3894 253.855 15.8717 253.855 23.6803V42.9979H246.772V40.397C246.772 39.1277 246.952 38.1587 246.952 38.1587H246.834C244.975 41.4283 241.312 43.729 237.173 43.729C231.651 43.729 227.09 40.0966 227.09 34.464C227.083 25.1933 238.133 23.6181 244.913 23.6181ZM239.273 37.847C243.536 37.847 246.294 33.4893 246.294 29.7323V28.8824H244.975C241.132 28.8824 234.65 29.4264 234.65 33.7896C234.65 35.8467 236.211 37.847 239.273 37.847Z" fill="black"></path>
    <path d="M263.846 49.231C265.947 49.231 268.049 47.9616 269.189 45.236L270.329 42.5104L257.426 12.1144H266.01L272.43 29.9133C273.03 31.5453 273.57 34.0896 273.57 34.0896H273.694C273.694 34.0896 274.232 31.67 274.716 30.0323L280.714 12.1086H289L275.373 47.6557C273.272 53.2883 268.829 55.708 264.33 55.708C260.667 55.708 257.966 53.7077 257.966 53.7077L260.488 47.956C260.488 47.956 262.167 49.231 263.846 49.231Z" fill="black"></path>
    <path d="M65.1703 40.1264C65.1703 40.0981 65.1703 40.0641 65.1758 40.0358C65.2151 39.0214 64.3107 38.2451 63.3334 38.5001C62.7941 38.6417 61.3674 39.1008 61.0304 39.1291C60.654 39.1632 62.7941 32.3971 63.3839 27.3764C63.7772 24.0558 63.4907 21.5001 61.3505 22.1915C53.1833 27.0025 48.111 34.8734 40.556 40.3134C42.8366 30.9408 42.9601 26.3508 42.1401 25.8862C41.2245 25.3705 39.1349 30.0171 37.5789 38.9251C34.7423 55.1715 55.4076 29.8697 59.7722 27.0817C58.5982 33.5872 58.424 37.6897 57.0591 40.1491C56.576 41.0161 49.858 45.0168 43.4208 50.3661C38.7361 54.2648 33.4784 60.9798 30.8046 67.1168C28.0298 73.4804 27.9456 79.1187 33.821 79.9291C36.5116 80.2974 39.2191 79.1925 41.2806 77.4641C51.588 68.8168 56.8063 51.6977 58.9577 44.8638C59.1712 44.1838 59.2666 43.9401 59.3621 43.5888C59.4239 43.4414 62.1988 42.1211 64.1198 41.5318C64.7433 41.3504 65.1478 40.7781 65.1703 40.1264ZM36.0005 76.9824C35.4444 77.3904 34.7759 77.6964 34.0794 77.7644C28.6252 78.3141 36.5004 64.0171 37.7811 61.7448C40.4605 57.7214 43.6679 54.2421 47.0999 51.2048C48.3637 50.0884 55.1661 45.3228 55.1717 45.7931C49.9142 56.6845 46.2349 69.4005 36.0005 76.9824Z" fill="#6186FA"></path>
    <path d="M30.3718 44.0588C29.5405 44.7956 28.2317 44.2345 28.1137 43.1239C27.9733 41.8319 28.2149 40.1602 28.6473 38.3639C30.4449 30.8839 35.5227 21.1769 29.855 26.9569C27.7093 29.1442 22.3955 37.4855 21.1148 39.5142C19.6544 41.8262 17.9916 43.4865 16.1492 41.2822C17.4019 36.7205 19.3735 32.2495 19.5139 26.7076C19.5925 23.5399 8.08304 38.5565 5.45422 43.2145C3.81403 46.1215 0.00561712 45.8609 0 43.1975C2.15136 38.3695 0.707757 27.0815 5.7407 25.9029C6.25748 29.0989 3.78032 38.5508 3.85334 38.8172C3.97131 39.2592 4.72961 37.9218 5.98785 35.7685C8.45939 30.5836 14.5484 24.1178 18.5197 23.0639C21.6091 22.2479 23.4235 24.7072 21.2608 33.5925C24.0919 29.3425 30.5234 22.5426 33.9892 21.9589C35.8036 21.6529 36.8034 23.0469 36.062 27.3932C35.8091 28.9062 33.523 41.2822 30.3718 44.0588Z" fill="#6186FA"></path>
    <path d="M163.873 40.6242V42.9476H184.325C186.724 42.9476 188.667 40.9869 188.667 38.5672V36.2439H168.216C165.817 36.2439 163.873 38.2045 163.873 40.6242Z" fill="black"></path>
    <path d="M163.873 16.473V18.7962H184.325C186.724 18.7962 188.667 16.8356 188.667 14.4159V12.0925H168.216C165.817 12.0925 163.873 14.0533 163.873 16.473Z" fill="black"></path>
    <path d="M163.873 28.5488V30.8721H184.325C186.724 30.8721 188.667 28.9115 188.667 26.4918V24.1685H168.216C165.817 24.1685 163.873 26.1291 163.873 28.5488Z" fill="black"></path>
  </g>
  <defs>
    <clipPath id="clip0_254_4447">
      <rect width="289" height="80" fill="white"></rect>
    </clipPath>
  </defs>
</svg>
